# xmcd
#
# Track frame offsets: 
#        150
#        15770
#        29677
#        45807
#        60632
#        75845
#        91817
#        109090
#        125105
#        142117
#        158887
#        176062
#        195517
#        209837
#        225335
#        241037
#        253025
#        270157
#        288200
#        304770
#
# Disc length: 4281 seconds
#
# Revision: 1
# Processed by: cddbd v1.5.2PL0 Copyright (c) Steve Scherf et al.
# Submitted via: ExactAudioCopy v1.0b3
#
DISCID=fe10b714
DTITLE=Various Artist - Dance Max 2002.1 - CD 2
DYEAR=1900
DGENRE=Dance
TTITLE0=Jan Wayne - Only You (Radio Edit)
TTITLE1=Alex Butcher - Sweet Dreams (Radio Edit)
TTITLE2=Aquagen Feat. Rozalla - Everybody's Free (Radio Edit)
TTITLE3=The Supreme Dream Team Vs. Clive King - Dreamer (Radio Edit)
TTITLE4=Camino Feat. Jeanna - Feels Like Heaven (Video Summermix)
TTITLE5=MB Style - First Time (Radio Mix)
TTITLE6=Blackjack - Into The Groove (Club Radio Cut)
TTITLE7=Ravelab - Send Me An Angel (Radio Version 1)
TTITLE8=Alex C. Feat. Yasmin K. - Rhythm Of The Night (Single Edit)
TTITLE9=Monsta - (I've Had) The Time Of My Life
TTITLE10=Pulsedriver Vs. George Kranz - Din Daa Daa (Single Version)
TTITLE11=Sandra - Such A Shame (Radio Edit)
TTITLE12=Prefecto - Anything For Love (Radio Edit)
TTITLE13=Shodan - One Night In Bangkok (Radio Version)
TTITLE14=Interactive - Forever Young (Original '94 Radio Version)
TTITLE15=Woody Van Eyden - Together (Radio Mix)
TTITLE16=Re-Turn Feat. Michael Sembello - Maniac 2002
TTITLE17=Matthias Schaffhäuser - Hey Little Girl (Radio Version)
TTITLE18=Silvermoon - Lily Was Here (Mix and Magix Meets Nikos Vs. Porce
TTITLE18=ll Radio Edit)
TTITLE19=Mad'House - Like A Prayer (Radio Edit)
EXTD=
EXTT0=
EXTT1=
EXTT2=
EXTT3=
EXTT4=
EXTT5=
EXTT6=
EXTT7=
EXTT8=
EXTT9=
EXTT10=
EXTT11=
EXTT12=
EXTT13=
EXTT14=
EXTT15=
EXTT16=
EXTT17=
EXTT18=
EXTT19=
PLAYORDER=
